<?xml version="1.0" encoding="UTF-8"?><svg id="Layer_2" xmlns="http://www.w3.org/2000/svg" viewBox="0 0 369.6 341.071"><g id="Components"><g id="e08aa47e-1278-40f7-a2a3-844c07e00961_1"><path d="m0,228.4802c0-32.08,0-64.16,0-96.24,1.1852-4.0559,2.2975-4.8807,6.5829-4.8807,9.8392,0,19.6784,0,29.5176,0h1.6494v-1.697c0-19.7984.0064-39.5968-.0205-59.3951-.0012-.9043.2409-1.4489,1.0262-1.9326,2.4833-1.5296,4.9025-3.163,7.3732-4.7137.6156-.3864.8551-.8228.8457-1.5511-.0375-2.9193.01-5.8397-.0316-8.7588-.0111-.7766.2483-1.2302.9061-1.641,2.4741-1.5451,4.895-3.1752,7.369-4.7205.6895-.4307.9603-.9047.9551-1.7315-.0368-5.7993.1489-11.606-.093-17.3954-.1146-2.7416.6376-4.4229,3.1206-5.6385,2.0883-1.0224,3.9615-2.4841,6.1765-3.9101v10.064c2.1574-2.0266,4.0659-3.8194,6.0049-5.6408,1.8755,1.7551,3.6837,3.4473,5.492,5.1395.0925-.0558.1851-.1115.2776-.1673v-9.4108c.4297.2395.7102.3762.9706.5441,2.3513,1.5154,4.6733,3.0784,7.0614,4.5329.8562.5215,1.1782,1.0869,1.1709,2.0976-.0476,6.5191-.0038,13.0389-.0475,19.5581-.0062.9218.2858,1.4375,1.0587,1.9135,2.4493,1.5085,4.8325,3.1241,7.2765,4.6416.6643.4124.8775.8722.8655,1.6368-.0459,2.919.0071,5.8396-.0364,8.7587-.0109.7329.2323,1.1603.8408,1.5421,2.3694,1.4867,4.6767,3.0749,7.0767,4.5089,1.0226.611,1.3624,1.2994,1.3601,2.4858-.0394,19.7583-.0282,39.5167-.0277,59.2751q0,1.6033,1.6381,1.6061c6.6383.0236,13.2767.0492,19.915.0737.4571.0017.9142.0002,1.3714.0002v-2.7123h-18.1357c0-.6457,0-1.1532,0-1.6606,0-20.1984-.0063-40.3967.0205-60.595.0012-.9087-.2358-1.4672-1.0419-1.9216-1.2161-.6855-2.3655-1.491-3.5318-2.2628-1.5264-1.0101-3.6333-1.7205-4.3957-3.1456-.768-1.4355-.1615-3.5895-.2273-5.4262-.0249-.6958.2361-1.0824.7957-1.4382,1.5848-1.0075,3.1078-2.1142,4.7086-3.0944,3.1638-1.9372,6.3636-3.8155,9.6493-5.7784-1.6761-2.8173-3.3609-5.6493-5.0746-8.5297-.4913.2502-.8906.4204-1.2566.6448-4.1203,2.5263-8.2596,5.0231-12.3431,7.6077-2.4389,1.5436-2.3853,1.5863-4.8715-.0258-.6118-.3967-.8531-.8321-.8364-1.5543.0434-1.8788.0537-3.7606-.0039-5.6386-.0243-.7924.2841-1.2377.926-1.6347,2.4125-1.4923,4.7767-3.0632,7.199-4.5391,9.5488-5.8182,19.7677-10.2065,30.1168-14.3806C150.2751,2.9058,171.9636-.8632,194.495.1656c14.5413.664,28.7009,3.3626,42.4463,8.1568,15.7653,5.4987,30.1143,13.7567,44.0516,22.7929,2.2371,1.4504,4.3565,3.0821,6.6213,4.6947-2.9566,2.0879-5.7605,4.068-8.4532,5.9695-5.285-3.374-10.4822-6.6919-15.7434-10.0506-1.8317,3.0796-3.5022,5.888-5.1715,8.6946,4.0453,2.5032,8.0392,4.9746,12.1651,7.5277-.5006.3954-.7956.6462-1.1084.8725-2.3315,1.6873-4.6737,3.36-6.9981,5.057-1.6545,1.2078-2.2114,2.8217-1.6372,4.6123.5645,1.7606,1.9857,2.7267,4.0458,2.7368,1.5079.0073,3.0158.0014,4.6473.0014,0,.5812-.0008,1.0128.0001,1.4443.0297,13.5572.0643,27.1145.0873,40.6717.0115,6.7594-.0188,13.519.0244,20.2782.0064,1.0102-.2955,1.3188-1.2843,1.2745-1.5967-.0715-3.1989-.019-4.7988-.019-1.1031,0-2.2062,0-3.0888,0v-12.7714q2.4502,1.8132,4.2371-.0069c.9802-.9984.9875-1.2199-.0469-2.2431-.6728-.6656-1.3843-1.292-2.261-2.1054.5701-.4678.965-.7435,1.303-1.0769,2.3799-2.3476,2.2364-1.8998-.0776-4.2812-.7008-.7212-1.29-.6462-1.9147.0604-.6816.7709-1.3794,1.5275-2.2372,2.4749-.4772-.5958-.7465-1.0015-1.0829-1.3407-2.211-2.2297-2.2011-2.2116-4.3708.1405-.5901.6397-.609,1.1551.0315,1.7274.7983.7133,1.5848,1.4397,2.5787,2.3445-.9929.8905-1.7643,1.5803-2.5333,2.2727-.5369.4835-.8722,1.1092-.2228,1.6313.8728.7017,1.2578,2.1741,2.7704,1.9063.2378-.0421.4756-.3042.635-.522.3023-.413.5478-.8676.8168-1.3049l.5604.3597v12.7751h-3.3741v2.6783h1.4716c5.3596,0,10.7191.0003,16.0787-.0001q1.8148-.0001,1.8167-1.8224c.0004-21.1583.0113-42.3166-.0279-63.4748-.0023-1.2187.3535-1.5225,1.532-1.5766,6.427-.2954,12.8497-.6834,19.2737-1.0425,9.3763-.5241,18.7525-1.0481,28.1285-1.5774,4.8265-.2724,9.6524-.5561,14.4785-.8347-.0002-.0566-.0005-.1131-.0008-.1697h-59.525c9.3557-7.2644,18.4092-14.2942,27.6319-21.4554.2516,4.6446.4897,8.9928.7204,13.3413.0405.7639.1036,1.4253,1.1464,1.4597,1.1053.0364,1.2318-.6476,1.2718-1.4656.1075-2.1957.2023-4.3921.3225-6.587.1325-2.4185.2877-4.8357.4449-7.4517.5407.3621.9333.6088,1.309.8789,9.9967,7.1874,19.9844,14.3874,30.0011,21.5468.775.5539,1.0436,1.1193,1.0426,2.0513-.025,22.0782-.0194,44.1564-.0194,66.2346,0,.514,0,1.028,0,1.7052h1.627c6.7594.0001,13.5189-.0065,20.2783.0036,2.6918.004,4.3041,1.0837,5.2062,3.4196.0678.1756.1851.3322.2793.4975v97.92c-.9455,3.116-3.0807,4.1996-6.2682,4.1286-6.3962-.1424-12.7982-.0102-19.197-.0716-1.1659-.0112-1.721.2966-2.1825,1.4208-8.2946,20.2068-20.1642,38.0681-35.3578,53.746-11.3776,11.7402-24.4198,21.3258-38.4279,29.6344-4.8045,2.8497-9.7256,5.5354-14.746,7.983-18.9343,9.2312-38.9937,14.0862-60.0209,14.9102-9.8853.3875-19.7336-.1755-29.5348-1.5823-12.3473-1.7723-24.3348-4.8768-35.9538-9.4267-6.3036-2.4685-12.1768-5.7945-18.1841-8.8651-17.2124-8.7979-32.5276-20.1307-45.8662-34.1124-14.6724-15.3798-26.0627-32.9077-34.116-52.5871-.3388-.8278-.7509-1.1189-1.6594-1.1141-7.6391.04-15.2785.027-22.9178.0202-2.5806-.0023-4.4121-1.5007-4.9428-4-.0577-.2716-.149-.536-.2247-.8038ZM171.3731,79.6656c-13.4048-3.8737-26.6499-7.7013-39.895-11.5289.4514.3931.9624.5983,1.4813.7808,12.6163,4.4372,25.2302,8.8814,37.8581,13.2855.82.286,1.1134.7304,1.2088,1.5239.1907,1.586.4059,3.1721.7,4.7415.1597.8519-.1421,1.1904-.916,1.4681-10.8962,3.9107-21.7823,7.8498-32.6701,11.7841-2.4848.8979-4.9668,1.8035-7.4501,2.7056.0269.0793.0539.1587.0808.238,13.7799-4.1149,27.5598-8.2299,41.3366-12.3438.6746,2.1397.6579,2.1965-.9218,3.4444-1.4616,1.1545-2.0486,3.1053-1.4407,4.9679.3837,1.1756.8036,2.3427,1.2782,3.484.2782.669.1692,1.1653-.2323,1.7539-4.4826,6.5704-8.9385,13.1591-13.4001,19.7439-.3233.4772-.6348.9624-.9518,1.4439.1029.1009.2058.2018.3087.3028.3384-.2973.7371-.5483,1.0061-.8988,4.601-5.9943,9.1853-12.0014,13.777-18.003.1981-.2589.4313-.4909.6776-.7687q1.9842,4.2573,6.0636,4.9907v24.5104H10.1401v86.0816h57.0347c-2.0875,3.0876-2.8732,6.3195-2.6023,9.9503h-6.948c8.7354,17.8591,20.4784,33.082,35.3676,45.9824,1.7156-1.708,3.4075-3.3413,5.0308-5.0403.4772-.4994.9776-1.1453,1.095-1.7917.6478-3.5664,1.1688-7.1556,1.7618-10.7323.1236-.7456-.1088-1.0296-.8541-1.2317-3.2445-.8797-6.128-2.4726-8.7606-4.5617-.3945-.3131-1.0671-.4594-1.583-.407-4.4546.4519-8.7251.0054-12.5237-2.5858-2.792-1.9046-4.5481-4.4363-3.9093-7.9998.2115-1.18.8482-2.2839,1.3167-3.4899-.2958-.3849-.6787-.8467-1.0224-1.336-2.275-3.2392-3.0986-6.8231-2.3216-10.6998,1.2484-6.2292,6.7227-11.201,13.2884-11.9268,2.3477-.2596,4.7482-.0416,7.1895-.0416.3028-.8369.5683-1.8949,1.059-2.8355.4929-.9449,1.1171-1.8598,1.8446-2.6374,3.7091-3.964,10.0129-5.0551,15.5563-2.816.7518.3037,1.6094.4834,2.4187.4858,10.5195.0318,21.039.0211,31.5586.0211,38.1583,0,76.3167.0019,114.475-.0147.6963-.0003,1.4727-.0621,2.075-.366,2.7205-1.3724,5.5888-1.9888,8.5934-1.6442,4.917.5638,8.6844,2.8362,10.5775,7.6338.2442.6188.3876,1.2773.5678,1.8839.153.0279.2326.0606.3079.0527.1981-.021.3956-.0533.5911-.0922,3.676-.731,7.2529-.3853,10.6728,1.1366,9.3281,4.1514,12.0491,14.8697,5.9014,22.2564-.4873.5855-.2817.9538.0335,1.4652,1.3101,2.1261,1.4807,4.3611.4576,6.6419-.978,2.1801-2.7242,3.6264-4.7907,4.696-3.5687,1.8472-7.3719,2.2088-11.3108,1.7263-.4451-.0545-1.041.0947-1.3813.3749-2.6324,2.1674-5.5779,3.7295-8.8556,4.6271-.7739.2119-.936.5579-.8462,1.2543.3267,2.5352.4758,5.1053.9909,7.6005.4392,2.127.9616,4.3653,2.0542,6.1912,1.009,1.6863,2.8245,2.89,4.3738,4.3928,14.9315-12.8989,26.8295-28.1958,35.6118-46.2695h-7.5608c.7165-3.4457.2729-6.6335-1.3032-9.8989h54.1295v-86.0493h-163.748v-24.6267c3.5022.0649,4.7202-2.3554,5.5435-5.3077.4257.5243.6815.828.9252,1.1412,4.6648,5.9962,9.3247,11.9963,14.0004,17.984.2956.3785.7122.6624,1.0725.9903.1036-.0986.2071-.1972.3107-.2959-.2239-.3527-.436-.7135-.6733-1.0569-4.2031-6.084-8.2968-12.2485-12.6731-18.2053-1.6287-2.217-2.0194-4.0532-.813-6.5717,1.2525-2.6145.4125-4.5308-2.0145-6.1279-.2545-.1675-.4692-.6085-.4615-.9167.0153-.6145.198-1.2248.3336-1.9559,14.0467,4.0582,27.9857,8.0853,41.9247,12.1123-.2287-.3289-.5196-.4491-.816-.5535-7.2673-2.5586-14.5343-5.1178-21.8031-7.6722-5.9507-2.0912-11.8969-4.1957-17.8623-6.244-.9061-.3111-1.1292-.7004-.931-1.6312.3073-1.4422.48-2.9177.6296-4.3872.0835-.8198.4368-1.2067,1.2232-1.4883,10.1101-3.6202,20.2062-7.2795,30.3049-10.9319,2.9172-1.0551,5.8311-2.1193,8.7465-3.1793l-.0857-.2653c-13.1456,3.9256-26.2913,7.8512-39.5817,11.8201.1466-.9023.2596-1.5978.3697-2.2751,4.4534-.34,5.4239-3.6522,3.8709-6.8792-1.5371-3.1941-2.6809-6.5775-3.995-9.8789-1.1077-2.7829-1.9452-3.3896-4.9206-3.4196-.6835-.0069-1.0381-.222-1.3715-.8445-1.2744-2.3795-3.2596-3.6399-6.0203-3.6082-2.5596.0294-5.1199.0239-7.6796.0013-2.5078-.0221-4.4531,1.0541-5.6462,3.1919-.591,1.0589-1.2536,1.3907-2.3469,1.2536-.393-.0493-.8006-.0218-1.1981.0119-1.4727.1248-2.6514.8186-3.2129,2.1734-1.7427,4.2048-3.4616,8.4221-5.0578,12.6839-.8522,2.2755.6049,4.5903,3.0012,5.0666.6958.1383,1.419.1386,2.2305.2112.0935.6526.1863,1.3004.2965,2.0688Zm-63.9825,235.4616c49.3799,30.2209,113.3927,28.2788,157.4682.1174-.2505-.3946-.4978-.7932-.7538-1.1861-7.2196-11.0819-14.4405-22.1629-21.6599-33.245-1.0176-1.5621-1.0267-1.5922-2.7233-.836-13.5181,6.0242-27.5336,10.202-42.3405,11.4697-11.0256.944-21.9521.2752-32.7944-1.9229-10.2262-2.0732-20.005-5.4948-29.4938-9.7769-1.0463-.4721-1.544-.3354-2.2213.595-7.1285,9.7913-14.3118,19.5427-21.4783,29.3063-1.3197,1.798-2.6318,3.6016-4.0029,5.4785Zm26.1012-253.265c35.8571-16.9096,71.658-16.9019,107.3682-.002,7.4049-12.4494,14.6695-24.663,21.9796-36.9533-25.1498-15.1084-52.3097-21.8951-81.4346-20.8346-25.0371.9117-48.3018,7.9654-69.977,20.7102,7.3373,12.3309,14.6427,24.6081,22.0637,37.0797ZM40.0308,233.2898c14.4455,32.469,36.8203,57.392,67.2857,75.1943,7.3769-10.056,14.6353-19.9505,22.0644-30.0776h-1.7994c-7.6397,0-15.2804.0639-22.9185-.0476-1.7804-.026-2.9284.5681-4.1206,1.8053-2.6012,2.6993-5.3797,5.2277-8.203,7.9384-1.594-1.4221-3.3391-2.9907-5.0968-4.5453-9.6638-8.5473-18.1384-18.1365-25.3409-28.8476-4.3785-6.5115-8.2276-13.3177-11.5544-20.4238-.1873-.4001-.6518-.9439-.999-.9527-2.9933-.0755-5.9892-.0434-9.3176-.0434Zm205.6061,45.1167c6.5515,10.0566,12.9478,19.875,19.4017,29.7815,30.2794-17.8734,52.4659-42.7009,66.7569-74.9014-3.0799,0-5.8382.0422-8.594-.0234-.9344-.0222-1.4065.2593-1.8046,1.1243-3.4485,7.4936-7.5636,14.6095-12.2078,21.4275-7.4745,10.9728-16.439,20.6046-26.3406,29.3976-1.2723,1.1298-2.6164,2.1788-3.6508,3.0361-3.1422-3.0013-6.1857-5.8366-9.1323-8.7693-.8135-.8096-1.6093-1.1195-2.7275-1.0951-2.9986.0654-5.9995.0223-8.9995.0223h-12.7015Zm9.4011-63.7284H116.8522c.2329,1.2975.9156,1.749,2.1425,1.8405,3.1253.2332,5.6674,2.5078,6.2147,5.5827.198,1.1127.6813,1.276,1.659,1.2755,39.4272-.0204,78.8544-.0174,118.2816-.0174.4707,0,.9414,0,1.4324,0,.0675-.3269.1206-.5141.1435-.7049.4761-3.9789,3.0478-6.4452,7.0465-6.6377.9473-.0456,1.0787-.6057,1.2656-1.3388ZM77.0148,127.3508V36.692c-1.9837,1.8586-3.7984,3.5588-5.6344,5.279-1.9764-1.8542-3.8689-3.6296-6.0197-5.6474v1.6993c0,29.2353,0,58.4707.0003,87.706,0,.3199-.0779.6725.0315.9503.1042.2644.4043.6409.6218.6433,3.6326.0397,7.2658.0283,11.0004.0283Zm259.9563-20.0393c.3087-1.981.2075-2.1095-1.5744-2.1096-18.8383-.0013-37.6766-.0013-56.5149,0-1.8141.0001-1.9807.2171-1.5633,2.1094,1.3715,0,2.7652-.003,4.1589.0008,1.4877.0041,1.6865.1889,1.6893,1.635.0066,3.3597.007,6.7194-.0003,10.0791-.0029,1.3523-.2645,1.6117-1.6127,1.6216-1.4297.0104-2.8596.0023-4.2637.0023-.3565,2.0225-.1952,2.2232,1.6839,2.2233,18.7983.0008,37.5967.0009,56.395-.0002,1.7738-.0001,1.9519-.2347,1.5763-2.2233-1.5156,0-3.0635-.0257-4.6099.0089-1.0579.0237-1.5524-.4296-1.549-1.4919.0112-3.4797.0089-6.9594.0013-10.4391-.0021-.9935.4283-1.4562,1.4601-1.4276,1.5562.0431,3.1146.0112,4.7232.0112Zm-231.0562,168.0774c.0007.0417.0014.0833.0021.125,8.0376,0,16.0754-.0255,24.1128.0244,1.3854.0086,2.3357-.4862,3.1353-1.5584,5.4255-7.2754,10.8717-14.5352,16.3078-21.8027.4389-.5867.8518-1.1928,1.3737-1.926-.4471-.0436-.6778-.0856-.9085-.0857-6.2793-.0038-12.5588-.0207-18.8377.0293-.5083.0041-1.1241.361-1.5028.7407-6.9469,6.9652-13.864,13.9601-20.7904,20.9457q-1.4774,1.4901-1.1248,3.4299c-.5969.0263-1.1822.052-1.7674.0778Zm158.7946-.6269c-.3746-.6547-.5387-1.1523-.8684-1.4869-7.3216-7.4306-14.6687-14.8359-21.9845-22.2722-.6163-.6265-1.2372-.8642-2.1019-.8587-5.3164.0335-10.6332.0153-15.9498.0197-.3795.0003-.7589.0434-1.29.0758.2687.4078.4251.6742.6089.92,5.6934,7.6172,11.3963,15.2272,17.0728,22.857.488.6558.8926,1.1239,1.821.8245.3502-.113.8271.158,1.2441.2629.5239.1318,1.045.3899,1.5682.392,6.6357.027,13.2716.0189,19.9074.0145.3316-.0002.6631-.0485.9946-.0745.017-.0983.0339-.1966.0509-.2949-.4395-.1552-.8789-.3104-1.0732-.3791Zm-65.7715,12.6131c-.1289-.9097-.2123-1.5429-.309-2.1741-1.7162-11.2115-3.4352-22.4226-5.1507-33.6342-.8879-5.8028-1.7787-11.6052-2.6427-17.4116-.0955-.6415-.3407-.9175-.997-.8759-.6198.0393-1.244.0084-1.9893.0084.945,18.2819,1.8801,36.371,2.8238,54.6263,2.8474-.1857,5.4994-.3586,8.2649-.5389Zm98.0959-208.1667c.1093,0,.2186,0,.3279,0,.1361,3.9904.2872,7.9803.4024,11.9713.0618,2.1405,1.0032,3.1211,3.1861,3.1287,4.6752.0164,9.3506.017,14.0258-.0006,2.1061-.0079,3.1114-.9786,3.1763-3.0421.2525-8.0217.4936-16.0437.7337-24.0658.0564-1.8855-.9231-2.9375-2.8015-2.9433-5.4345-.0165-10.869-.018-16.3035.001-1.868.0065-2.7752,1.0834-2.7581,2.9744.036,3.9918.011,7.9842.011,11.9763Zm-113.2457,154.1333c-.5032-.0261-.7846-.0174-1.0584-.059-1.0453-.1588-1.539.1475-1.6883,1.3299-.4352,3.4461-1.0271,6.8725-1.5594,10.3064-1.7991,11.6046-3.5997,23.2089-5.3981,34.8135-.3655,2.3586-.7236,4.7184-1.11,7.2401,2.7544.2633,5.3826.5145,8.107.7749.9079-18.2469,1.8048-36.2712,2.7071-54.4058Zm-88.082-123.579c.0337-.264.0797-.4564.0797-.6487.0039-12.5994.0058-25.1987-.0051-37.7981-.0003-.295-.0499-.7144-.242-.8656-2.0871-1.6425-4.2074-3.243-6.4671-4.9683v44.2806h6.6344Zm-41.455-44.2977c-2.0888,1.5901-3.936,3.0458-5.8416,4.4206-.6903.498-.9419,1.0279-.9399,1.8795.0282,12.2285.0193,24.457.0193,36.6856v1.3072h6.7623v-44.293Zm213.3179,188.2376c-4.4954-.1078-7.6295-1.8929-9.765-5.454-.1753-.2924-.7553-.5075-1.1335-.4882-6.1065.3127-11.6714-4.9237-11.6178-11.0335.0098-1.1217.2683-2.2413.4113-3.3563h-12.7117c11.2953,11.4109,22.4004,22.6296,33.5056,33.8484.145-.039.29-.078.435-.117.2898-4.4333.5797-8.8667.876-13.3994Zm-104.0626-20.4149c-5.4604,0-10.6543-.0166-15.8477.0299-.44.0039-.9655.3391-1.3005.672-3.3727,3.3519-6.7176,6.7318-10.0615,10.1126-.9571.9677-1.8853,1.9641-3.0004,3.1288,6.4588,0,12.6098-.0154,18.7606.0188.8076.0045,1.3129-.2467,1.7873-.8892,2.966-4.0172,5.9695-8.0067,8.9569-12.0081.2058-.2757.3815-.5738.7052-1.0649Zm-37.1243.0789c0,.1636-.0257.2528.0036.3166,3.0775,6.6975-3.534,15.1432-11.0139,14.5293-.3738-.0307-.8702.3507-1.167.6719-.8072.8737-1.4499,1.9133-2.3168,2.7152-1.9621,1.815-4.3961,2.5133-7.3037,2.5796.2444,4.1375.4846,8.2039.7248,12.2703l.4006.088c10.8787-10.9904,21.7573-21.9808,32.8336-33.1709h-12.1612Zm111.5824,13.8636c-.4155-.4607-.6366-.7262-.8785-.971-4.0415-4.0893-8.0727-8.1891-12.1497-12.2427-.3937-.3914-1.0721-.6907-1.6232-.6985-4.0724-.0581-8.146-.033-12.2192-.0287-.3416.0004-.6831.0396-1.1514.0686.14.2837.1983.4668.3069.6123,3.1769,4.2538,6.3518,8.5091,9.5567,12.7417.2015.2662.6432.4951.9745.4968,5.6288.0302,11.2579.0216,17.1839.0216Zm33.1672,9.6838c3.073-.0789,5.9512-.8468,8.4819-2.185-2.117-1.3035-4.226-2.6021-6.3678-3.9208-2.4824,1.1707-2.6497,3.4515-2.1141,6.1059Zm-170.0364.4813c0-1.3931.0194-2.6611-.0175-3.9274-.0068-.2341-.1943-.5128-.3794-.6829-.6408-.5887-1.3173-1.1385-1.7858-1.5375-2.1763,1.3338-4.3102,2.6416-6.4404,3.9472,2.5605,1.3092,5.4025,2.0817,8.6231,2.2006Zm-28.3113-222.0061c.1462.1122.2924.2244.4386.3366,1.0137-1.1162,2.0843-2.187,3.0238-3.3626.7984-.9991.9491-2.2353.4667-3.4065-.7527-1.8274-2.4462-2.7909-3.9291-4.2127v10.6451Zm-3.2101-10.1888c-5.5245,4.0816-4.4437,6.7877,0,9.9263v-9.9263Z" style="stroke-width:0px;"/><path d="m345.5812,57.102c-1.1909.2864-2.169-.2835-3.1795-1.0266-10.8473-7.9774-21.7297-15.9072-32.5703-23.8939-1.0679-.7868-1.8266-.8643-2.9457-.0595-11.2882,8.1182-22.6303,16.1613-33.9118,24.2887-1.2726.9168-2.554.6958-3.8736.6375-.2657-.0117-.7152-.5097-.7157-.7842-.0007-.4091.2118-.9612.5258-1.2049,1.83-1.4201,3.715-2.7696,5.5835-4.14,10.7939-7.9161,21.5998-15.816,32.3655-23.7703,1.0975-.8109,1.8524-.8071,2.9438-.0019,12.4744,9.2025,24.9832,18.3585,37.481,27.5292.2891.2121.6034.4138.8285.6847.5642.6787.2388,1.596-.6361,1.7248-.5866.0863-1.1962.0164-1.8955.0164Z" style="stroke-width:0px;"/><path d="m24.2908,151.041v58.5999h65.3603c-1.181,1.5964-2.2935,3.1156-3.4312,4.6156-.1208.1593-.3812.2595-.5918.2931-.3122.0498-.6379.0168-.9578.0168-20.6374.0002-41.2748.0004-61.9122,0-2.679,0-3.3961-.7105-3.3966-3.422-.0038-20.5174-.0027-41.0348.0014-61.5522,0-.4784.0173-.9622.0881-1.4342.1758-1.1718,1.0025-1.9157,2.1911-1.9954.3983-.0267.7996-.0085,1.1995-.0085,51.5535-.0002,103.107-.0002,154.6604-.0002h1.835c0,1.5238.0235,2.9457-.0295,4.3647-.0067.1785-.3975.4472-.6424.4899-.4663.0812-.9559.0321-1.4357.0321-50.3137.0004-100.6273.0004-150.941.0004h-1.9977Z" style="stroke-width:0px;"/><path d="m283.5367,209.6915h61.7963v-58.6505h-1.7636c-48.6391,0-97.2781.001-145.9172-.0031-2.3463-.0002-1.9456.202-1.9799-1.9713-.0144-.9124-.0024-1.8252-.0024-2.8457.5236-.0255.948-.0644,1.3724-.0644,50.079-.0027,100.158-.0028,150.237-.0019,2.2014,0,3.0485.8357,3.0489,3.0321.003,20.7596.003,41.5192,0,62.2788-.0003,2.2571-.8543,3.0996-3.1271,3.0998-19.9996.002-39.9992-.0058-59.9988.0236-.9121.0013-1.2696-.2865-1.6129-1.1193-.522-1.2662-1.3011-2.4263-2.0526-3.7782Z" style="stroke-width:0px;"/><path d="m202.3,73.8177c-1.128,7.6802-2.2515,15.3296-3.3805,23.0171h-2.9519c1.112-7.6688,2.2128-15.2611,3.3308-22.9712h-3.7322c-.6178,7.6693-1.2322,15.2973-1.8502,22.9688h-1.9102c.607-7.6733,1.2096-15.2906,1.8191-22.9946h-13.5771c.6079,7.6818,1.2108,15.2989,1.8129,22.9069-1.8984.3241-1.9131.2943-2.0486-1.425-.5461-6.9298-1.1075-13.8584-1.6651-20.7873-.0158-.1961-.052-.3905-.091-.6758h-3.0381c1.1102,7.6481,2.2133,15.2464,3.3436,23.0331-.7881,0-1.4529-.0374-2.1115.0104-.667.0484-.9132-.2432-1.0024-.8713-.7136-5.0209-1.4469-10.0389-2.1784-15.0572-.3053-2.0943-.657-4.1826-.912-6.2828-.087-.7169-.3521-.9879-1.0491-.9292-2.9254.2463-3.1306-.2826-1.9645-3.0073,1.287-3.0071,2.4615-6.0628,3.6481-9.1118.2429-.6242.5037-.9471,1.2576-.9445,8.4764.0294,16.953.0285,25.4294.0007.7094-.0023.9494.304,1.1767.8846,1.3383,3.4191,2.7161,6.8227,4.0693,10.236.586,1.4781.3093,1.895-1.2416,1.9444-.356.0113-.7117.0335-1.1832.0563Zm-29.8864-3.1296l.2175.1372c1.0742-1.6254,2.1721-3.2358,3.2118-4.883.4616-.7314,1.0042-1.1304,1.9072-1.204,4.0962-.3339,8.1874-.7288,12.2799-1.1073,2.5489-.2358,5.0969-.4817,7.6452-.7231-.0064-.0993-.0128-.1986-.0192-.2978-6.9076,0-13.8152.0066-20.7228-.008-.9118-.0019-1.6697.1623-2.0157,1.1252-.8337,2.3206-1.6691,4.6406-2.5038,6.9609Z" style="stroke-width:0px;"/><path d="m173.4139,98.9515h27.5241c-.2359.7099-.4321,1.3466-.6582,1.9724-.7598,2.1027-1.5302,4.2017-2.2968,6.302-.6889,1.8874-.8184,1.977-2.8747,1.9805-.79.0014-1.5801.0002-2.5474.0002v1.7681c0,12.9126.0004,25.8253-.0007,38.7379q-.0001,1.5639-1.5614,1.5677c-2.4386.0021-4.8793-.0586-7.3149.0264-1.1417.0399-1.3873-.3703-1.3847-1.4329.0315-12.9925.0206-25.9852.02-38.9777q0-1.6884-1.6664-1.6886c-4.2311.01-3.5046.2306-4.8818-3.3919-.8223-2.1628-1.5743-4.3524-2.3538-6.5314-.0245-.0686-.0031-.1537-.0031-.3326Zm11.4304,43.1645l.2294.0522c1.0833-10.969,2.1667-21.9379,3.2533-32.9408h-3.9344c.1514,11.0285.3015,21.9585.4516,32.8886Zm12.4528-40.8843c-.071-.047-.142-.0939-.213-.1409-.7036,1.058-1.3591,2.1532-2.1349,3.1553-.3003.388-.85.7473-1.3253.8068-1.9767.2472-3.9693.3642-5.9541.5497-2.3701.2216-4.7383.4644-7.1073.6981,4.6238.2516,9.2337.2741,13.8424.2148.4313-.0055,1.0729-.4319,1.2451-.8256.6338-1.449,1.111-2.9665,1.6471-4.4582Z" style="stroke-width:0px;"/><path d="m263.6838,159.8737c1.5423,0,3.0526-.0447,4.5561.0359.3197.0172.7053.435.9077.7627,2.1411,3.4663,4.2501,6.9524,6.3716,10.4308.2223.3645.4674.715.7902,1.2064.5905-.9743,1.1067-1.8116,1.609-2.6572,1.7746-2.9877,3.5571-5.9709,5.3051-8.9742.3372-.5793.702-.8588,1.4092-.8248,1.3116.063,2.6284.018,4.0995.018v21.6518h-5.4711v-10.895c-.0892-.0237-.1784-.0474-.2676-.0712-.1775.2275-.381.4394-.5284.685-1.4796,2.4658-2.9448,4.9402-4.4249,7.4057-.705,1.1744-2.9538,1.1988-3.6732.035-1.4073-2.2764-2.7941-4.5655-4.195-6.8459-.1998-.3253-.4308-.6313-.846-1.2351v10.9085h-5.6422v-21.6366Z" style="stroke-width:0px;"/><path d="m58.0059,181.6102v-10.909c-.093-.0257-.186-.0514-.2791-.0771-.5639.9323-1.1312,1.8626-1.6909,2.7975-1.0053,1.679-2.0071,3.3602-3.0084,5.0416-.8667,1.4553-3.0322,1.4536-3.9309-.0088-1.5442-2.5127-3.0836-5.0284-4.8795-7.4989v10.5789h-5.6343v-21.6576c1.5173,0,3.0619-.0462,4.5993.0384.3131.0172.6772.4781.8855.816,2.1794,3.5358,4.3312,7.0885,6.493,10.6351.1619.2656.3418.5202.6216.9437.3053-.495.5493-.8784.7814-1.2688,2.0414-3.4327,4.0963-6.8575,6.1062-10.3085.363-.6233.744-.9181,1.4936-.8794,1.2737.0659,2.5532.0181,3.9733.0181.0492.9797.1351,1.9177.1371,2.8559.0126,5.8768-.0146,11.7537.0269,17.6302.007.9956-.2794,1.3327-1.284,1.2734-1.3864-.0819-2.7812-.0206-4.4109-.0206Z" style="stroke-width:0px;"/><path d="m107.4873,181.5576h-5.9374v-21.682c1.5358,0,3.0468-.0456,4.5512.0342.347.0184.7352.4125.9961.7244,2.6681,3.1882,5.313,6.3958,7.9673,9.5955.241.2905.5028.5638.984,1.1005v-11.3782h5.947v21.6478c-1.5721,0-3.1182.0387-4.6593-.0325-.3109-.0144-.6541-.4023-.8953-.6908-2.6668-3.1895-5.3154-6.3942-7.9723-9.5919-.2442-.2939-.5117-.5685-.9814-1.0875v11.3604Z" style="stroke-width:0px;"/><path d="m172.9091,160.1035c4.219,0,8.3577-.3238,12.4243.0797,5.4198.5377,8.2921,5.3429,6.6536,10.3609-.6317,1.9345-1.9922,3.2191-3.7833,4.2498,1.515,2.2228,2.9898,4.3866,4.6459,6.8165-1.5858,0-2.9597-.1165-4.3051.0296-1.6643.1807-2.8233-.2938-3.5461-1.8539-.2979-.6431-.8936-1.151-1.1762-1.798-.943-2.159-2.6017-2.5424-4.8051-1.9751v5.49h-6.1079v-21.3994Zm6.1333,4.7438v6.3365c1.618-.0922,3.1649-.0825,4.681-.2937,1.5942-.222,2.5294-1.4727,2.5009-3.0244-.029-1.5762-.9701-2.8202-2.5515-2.9851-1.4893-.1553-3.0075-.0333-4.6305-.0333Z" style="stroke-width:0px;"/><path d="m221.7443,164.5543v3.6627h9.5021v4.6558h-9.4935v3.9862h11.1957v4.6523h-17.271v-21.5394h16.7914v4.5824h-10.7246Z" style="stroke-width:0px;"/><path d="m321.2249,159.9322h16.8436v4.672h-10.8611v3.6621h9.5817c0,1.4086.0533,2.6809-.0457,3.9412-.0195.2476-.623.6338-.9646.6419-2.3966.0567-4.7952.0282-7.1931.0343-.4311.0011-.8621.0357-1.4538.062,0,1.1436-.063,2.2132.0459,3.2651.026.2512.6219.6277.9611.6335,2.9566.0503,5.9145.0294,8.8719.0296.4301,0,.8603,0,1.3795,0v4.6639h-17.1653v-21.6057Z" style="stroke-width:0px;"/><path d="m212.2684,164.6141h-10.8751v3.6202h9.4691v4.6116h-9.4603v3.9865h11.1622v4.7038h-17.2039v-21.5799h16.908v4.6579Z" style="stroke-width:0px;"/><path d="m64.9392,181.6103c.8076-1.833,1.5249-3.4633,2.2439-5.0929,2.303-5.2198,4.6196-10.4338,6.8948-15.6657.3092-.711.646-1.0524,1.4819-1.0035,1.434.0838,2.8776-.007,4.3145.0472.3171.012.7925.2473.9091.5077,3.0801,6.8833,6.1232,13.7831,9.1663,20.6829.0425.0963.0053.2277.0053.5127-1.9453,0-3.8831.0194-5.8193-.0286-.2044-.0051-.4703-.375-.5853-.6308-.4091-.9095-.7984-1.8311-1.1294-2.7714-.2145-.6094-.5183-.8687-1.2078-.8561-2.4773.0452-4.9568-.0145-7.4332.0516-.3843.0103-.9144.3851-1.1053.7383-.6011,1.1116-.78,2.7715-1.6735,3.3183-.9671.5917-2.5542.1734-3.8709.1891-.6624.0079-1.3251.0014-2.1911.0014Zm15.3069-8.8504c-.8936-2.2279-1.7425-4.3443-2.5914-6.4608-.0999.0037-.1998.0075-.2998.0112-.8493,2.1099-1.6987,4.2199-2.5962,6.4495h5.4874Z" style="stroke-width:0px;"/><path d="m132.8781,179.6565c.699-1.5635,1.3434-3.0047,2.0247-4.5287,2.5081,1.4385,5.0676,2.2493,7.8608,2.0452.6632-.0485,1.3668-.1671,1.9577-.45,1.1404-.5459,1.2036-1.8587.0807-2.4369-.9414-.4847-2.0163-.7179-3.0422-1.0291-1.638-.4968-3.3453-.8195-4.9159-1.4738-5.0647-2.1096-4.1315-8.1493-1.17-10.3045,2.4044-1.7497,5.1355-2.1351,7.9654-2.0215,2.4395.0979,4.8253.5609,7.1015,1.8906-.6116,1.4827-1.2127,2.9402-1.7692,4.2892-1.828-.4732-3.5656-1.0283-5.3459-1.3399-.9055-.1585-1.9511-.0519-2.8131.2635-.5858.2143-1.2636.9616-1.3357,1.5408-.055.4423.6821,1.2458,1.23,1.449,1.4126.5241,2.9224.7807,4.3804,1.1903,1.0344.2906,2.0862.5693,3.0637,1.0033,4.9031,2.1765,4.0404,7.7939,1.351,10.0005-1.4728,1.2083-3.1738,1.8577-5.018,2.0899-3.3018.4157-6.5372.0778-9.6422-1.1763-.6533-.2639-1.2615-.6397-1.9637-1.0017Z" style="stroke-width:0px;"/><path d="m233.9108,159.9274h19.3521c0,1.4355.0414,2.8208-.0429,4.1984-.0132.2156-.5907.551-.9194.5661-1.3959.0641-2.7964.0285-4.1951.0292-.4308.0002-.8617,0-1.4111,0v16.8192h-6.1685v-16.8106h-6.6151v-4.8023Z" style="stroke-width:0px;"/><path d="m164.4226,181.5493h-6.1622v-16.8288c-1.89,0-3.6415-.0502-5.3882.0195-.9894.0395-1.358-.2711-1.2902-1.2792.077-1.1447.0178-2.2985.0178-3.5181h19.3636v4.7834h-6.5408v16.8231Z" style="stroke-width:0px;"/><path d="m308.8301,176.7086h10.2368v4.8302h-16.3195v-21.5993h6.0827v16.7691Z" style="stroke-width:0px;"/><path d="m91.4978,181.6103v-21.6731h5.9542c.0251.4493.0654.8382.0656,1.2271.0039,6.3567-.0206,12.7136.0254,19.0699.0079,1.0883-.2788,1.4753-1.4034,1.4007-1.5046-.0997-3.0209-.0247-4.6418-.0247Z" style="stroke-width:0px;"/><path d="m298.6985,181.6051c-1.8191,0-3.5702.0018-5.3213-.0007-.8602-.0012-.646-.6657-.6484-1.1321-.0169-3.3182-.0094-6.6365-.0095-9.9548-.0001-3.0784-.0022-6.1568.0026-9.2352.0007-.4285.0355-.857.0572-1.3457h5.9194v21.6685Z" style="stroke-width:0px;"/><path d="m105.8873,193.4957v8.8973h-2.5533v-13.4788c1.8995-.5571,2.4643-.3594,3.5143,1.2359,1.5361,2.3338,3.0747,4.6661,4.6186,6.9948.1613.2432.3656.4579.792.9852v-9.3322h2.5794v13.5024c-2.0704.5216-2.5107.3501-3.629-1.3538-1.658-2.5262-3.3275-5.045-4.9921-7.5669-.1099.0387-.2199.0775-.3298.1162Z" style="stroke-width:0px;"/><path d="m199.5948,202.4786c-.5787,0-.9819-.0573-1.3627.0108-1.1319.2023-1.7256-.2758-1.889-1.3764-.1602-1.0785-.7897-1.3941-1.8438-1.2962-1.0681.0992-2.1541.0565-3.2294.0095-.656-.0287-.995.1849-1.2264.8235-.7572,2.0898-.8212,2.1007-3.26,1.6924.0315-.1856.0359-.3806.0983-.5548,1.4502-4.0489,2.9318-8.0868,4.3398-12.1503.2652-.7652.6567-.9523,1.3888-.9262,2.5522.091,1.9104-.4088,2.7838,1.9754,1.2738,3.4776,2.5136,6.9676,3.7646,10.4535.1323.3686.2433.7449.436,1.3389Zm-6.3461-10.3163c-.0877.0011-.1753.0022-.263.0033-.6083,1.7761-1.2166,3.5523-1.8495,5.4002h3.9934c-.6628-1.904-1.2719-3.6537-1.881-5.4035Z" style="stroke-width:0px;"/><path d="m259.7763,199.3297c1.0058-2.892,2.0147-5.783,3.0162-8.6764.7653-2.2111.7806-2.2234,3.352-1.7883-.0815.3021-.139.6027-.2427.8865-1.4239,3.8979-2.8714,7.7873-4.2676,11.6951-.2633.7371-.5795,1.0746-1.4304,1.0563-2.2142-.0475-2.2174.0012-2.9828-2.0798-1.4037-3.8162-2.8045-7.6335-4.2928-11.6851.9341,0,1.7532-.0727,2.5448.0427.2493.0363.5014.5496.6229.8906,1.0303,2.8932,2.0298,5.7974,3.0413,8.6973.1166.3344.2495.663.3748.9943.0881-.011.1762-.022.2643-.0331Z" style="stroke-width:0px;"/><path d="m279.9435,202.4097v-13.6195h7.7393v2.1554h-5.042v3.4707h4.4593v2.0832h-4.4511v3.7141h5.035v2.196h-7.7406Z" style="stroke-width:0px;"/><path d="m337.1712,193.9928v1.9957h-33.0551v-1.9957h33.0551Z" style="stroke-width:0px;"/><path d="m40.3826,196.0102v-2.0011h33.0252v2.0011h-33.0252Z" style="stroke-width:0px;"/><path d="m156.1469,190.9387h-3.5245c-.0243.5179-.0606.9394-.0613,1.3609-.005,3.0355-.0607,6.0727.0246,9.1058.0357,1.2702-.7192,1.0425-1.4607,1.0807-.8101.0417-1.3373-.0201-1.3096-1.1115.0762-2.9937.0261-5.9905.0261-8.9861,0-.428,0-.8559,0-1.427h-3.5759v-2.1687h9.8813v2.1459Z" style="stroke-width:0px;"/><path d="m187.0291,82.3394c1.19,3.1457,2.3724,5.9327,3.2533,8.8118.2551.8337-.1248,2.0763-.6253,2.8727-.6409,1.0198-1.6982,1.7779-2.7016,2.7733-.9445-1.0104-2.0348-1.9244-2.7771-3.0649-.4496-.6908-.698-1.8422-.4528-2.5969.9319-2.8688,2.1017-5.6603,3.3034-8.7961Z" style="stroke-width:0px;"/><path d="m222.6444,188.7255v2.2043h-3.5303v11.4761h-2.6746v-11.4507c-1.142,0-2.094-.0046-3.0458.0014-.8542.0053-.665-.6301-.6623-1.1108.0027-.4765-.2042-1.1207.6517-1.1205,3.0653.0006,6.1306.0002,9.2613.0002Z" style="stroke-width:0px;"/><path d="m179.5511,58.5397c.6246-1.6725,1.4148-2.7323,3.3536-2.751,2.6686-.0257,5.3309-.4529,8.002-.5717,2.1197-.0943,3.3437,1.0513,3.7713,3.3226h-15.1269Z" style="stroke-width:0px;"/><path d="m172.6882,202.4061h-2.4394v-13.5927h2.4394v13.5927Z" style="stroke-width:0px;"/><path d="m132.138,202.4107h-2.4589v-13.6056h2.4589v13.6056Z" style="stroke-width:0px;"/><path d="m239.3392,202.4251h-2.5592v-13.5443c.0552-.0478.0829-.0931.1158-.0973q2.4435-.3106,2.4436,2.1561c0,3.3533-.0001,6.7067-.0002,10.0601,0,.433,0,.866,0,1.4255Z" style="stroke-width:0px;"/><path d="m88.5097,188.8204v13.566h-2.4771v-13.566h2.4771Z" style="stroke-width:0px;"/><path d="m135.2772,284.4893c35.1731,16.198,70.2544,16.1709,105.2697.056,6.1882,9.9968,12.3215,19.905,18.5351,29.9427-21.299,12.1324-44.0232,18.4082-68.2773,18.8352-26.7723.4714-51.8963-5.8616-75.3912-19.0591,5.877-10.5273,13.9792-19.3126,19.8638-29.7747Zm75.6654,22.8444c.2442,1.7263.4737,3.3491.7456,5.2712-1.475-1.3174-2.8042-2.3471-3.9369-3.5603-1.1388-1.2196-2.3196-1.0779-3.7244-.5781.5171,3.4269,1.0256,6.7961,1.5489,10.264,1.077-.1819,1.9945-.3368,2.9245-.4938-.2368-1.7403-.4512-3.3161-.7114-5.2283,1.448,1.2906,2.7034,2.2327,3.7348,3.3767,1.1155,1.2373,2.3004,1.377,3.8883.7049-.5025-3.352-1.0116-6.7477-1.5324-10.2216-1.0785.1709-1.9678.3118-2.937.4654Zm-53.1428,4.0435c.9778,1.7646,1.9141,3.2025,2.5939,4.7528.6618,1.5091,1.8176,1.6661,3.2697,1.6696.6411-3.3904,1.2738-6.7366,1.9215-10.1623-1.0345-.1941-1.9206-.3603-2.907-.5453-.3526,1.7304-.6789,3.3313-1.0619,5.2103-.9365-1.6966-1.8505-3.0676-2.4744-4.5599-.6653-1.5915-1.8526-1.8477-3.3706-1.8604-.6462,3.4114-1.2803,6.7593-1.9265,10.171,1.0337.1983,1.9204.3685,2.9176.5599.3347-1.689.6505-3.2824,1.0376-5.2357Zm11.5647-3.2825c-.3263,3.5631-.637,6.9561-.9659,10.5483,2.1329.1335,4.1471.35,6.1627.3635,2.6742.0179,4.6632-1.7312,5.01-4.2129.4021-2.8775-.9386-5.2108-3.6851-5.8499-2.0726-.4823-4.2376-.5674-6.5217-.8491Zm49.578,8.4811c.9565-.2358,1.7325-.3778,2.468-.6352.2591-.0907.5967-.4654.595-.7082-.0093-1.293.6576-1.8406,1.8618-1.9664.5122-.0535,1.0375-.162,1.5121-.3554.7781-.317,1.237-.0827,1.6913.592.2368.3517.7782.731,1.1568.7066.8075-.0519,1.5986-.359,2.3967-.5615-.0459-.1811-.0436-.2732-.0873-.3296-1.834-2.3706-3.67-4.7397-5.5106-7.1053-1.3529-1.7388-1.3654-1.7653-3.4102-1.0858-.3507.1165-.7446.5554-.8357.9167-.2922,1.1585-.4595,2.3491-.6607,3.5297-.3869,2.2698-.764,4.5413-1.1771,7.0025Zm-16.848,2.6802c-1.7085-3.364-3.2503-6.3736-4.7623-9.3982-.3067-.6136-.5758-1.1392-1.4114-.9046-.8665.2433-1.981-.3415-2.4638,1.0661-1.0084,2.9401-2.1679,5.8283-3.2571,8.7409-.1038.2774-.1497.5765-.234.9114.8623,0,1.6194.0499,2.3637-.0259.2768-.0282.7179-.3204.7525-.5436.2219-1.4326,1.1202-1.7307,2.3765-1.6122.4295.0405.8815-.0254,1.3081-.1148.8422-.1766,1.3117.1334,1.6521.9251.1676.3899.6193.8399,1.0086.9137.7587.1439,1.564.0422,2.667.0422Zm-18.6128-10.1439v10.5118h2.9049v-10.3655c-.8519-.0429-1.7496-.0881-2.9049-.1463Zm-34.4874-5.1156c-.9117,3.4196-1.79,6.7141-2.691,10.0941,1.0285.2765,1.934.52,2.9502.7933.9113-3.4144,1.7981-6.7366,2.6942-10.0939-.5642-.1717-.9782-.3099-1.399-.4225-.4568-.1223-.92-.2208-1.5544-.3709Zm88.5677-.2905c-1.2464.0011-2.2435.9514-2.2699,2.1634-.0274,1.2565,1.0035,2.2908,2.2727,2.2803,1.2941-.0107,2.288-1.017,2.2596-2.2877-.0275-1.2273-1.0031-2.157-2.2625-2.156Zm-99.2548,2.2105c-.0054-1.2417-.9451-2.184-2.2037-2.2099-1.291-.0266-2.3449.9817-2.3287,2.228.0163,1.2502,1.0741,2.2465,2.3526,2.2157,1.2272-.0296,2.1851-1.0112,2.1798-2.2338Z" style="stroke-width:0px;"/><path d="m117.5746,26.6005c40.7488-25.0074,96.98-25.5097,138.4673.0645-5.4753,9.914-10.953,19.8321-16.5078,29.8899-35.1209-16.2042-70.2418-16.1875-105.4085-.0016-5.5576-10.0578-11.0553-20.0072-16.551-29.9528Zm84.9659,5.8182c1.0305.1796,1.9515.3401,2.9594.5157.3184-1.6992.6158-3.2865.9673-5.1625.9331,1.566,1.84,2.8372,2.4807,4.2309.7044,1.5324,1.7989,2.103,3.5568,1.955.5759-3.2643,1.1595-6.5715,1.7636-9.9954-1.0647-.1735-1.9835-.3233-2.9659-.4834-.3158,1.6996-.6084,3.2743-.9546,5.1372-1.0044-1.6813-1.9793-3.0507-2.6745-4.5498-.7145-1.5408-1.9225-1.6466-3.3635-1.669-.5858,3.3181-1.1598,6.5691-1.7693,10.0212Zm14.8264,2.7978c1.6105.4931,3.1233.9663,4.6431,1.4159.4956.1466,1.004.2798,1.5157.3367,3.0021.3341,5.2812-1.1375,5.9372-3.8063.6662-2.7106-.6088-4.9954-3.5133-6.0673-1.744-.6436-3.5487-1.1224-5.4271-1.7066-1.0638,3.3129-2.0933,6.5191-3.1557,9.8276Zm-73.3252-6.4818c.5569,1.7185,1.0711,3.3424,1.6091,4.9585,1.319,3.9615,4.8159,5.0985,8.2422,2.6835,1.1202-.7896,1.9213-1.8924,1.6545-3.2421-.4874-2.4656-1.2266-4.8815-1.8877-7.4219-1.212.3961-2.0991.6859-3.0256.9887.6475,1.9959,1.282,3.8432,1.8415,5.713.4126,1.3789-.2189,2.3604-1.5728,2.5218-1.179.1406-1.7454-.6176-2.0859-1.5881-.6309-1.7982-1.2295-3.6077-1.8733-5.506-.995.306-1.8904.5814-2.9021.8926Zm20.0971,2.5979c1.1006-.2867,2.0868-.4656,3.0161-.8019,1.9808-.717,2.8502-2.1412,2.5823-4.0508-.2541-1.8111-1.5365-3.1714-3.5156-3.1199-2.1935.057-4.3758.5437-6.643.8542.6918,3.5477,1.3304,6.8229,1.9901,10.206,1.0755-.2152,2.0235-.4049,2.997-.5997-.158-.9208-.2857-1.6649-.4269-2.4879Zm34.6353.6065c-1.1971-2.968-2.3161-5.7358-3.4297-8.5058-.7867-1.9568-.7853-1.9173-2.8826-2.0143-.73-.0338-1.0583.2365-1.3563.8422-1.1268,2.2905-2.3028,4.5567-3.4529,6.8358-.3725.7382-.722,1.4881-1.1391,2.3507.9404.0546,1.7317.1507,2.5179.1199.286-.0112.7546-.2797.8076-.508.3147-1.3556,1.2629-1.4147,2.3595-1.3087.5948.0575,1.2196-.047,1.7872.0954.4103.1029.9885.43,1.0754.7651.2881,1.1112.9275,1.4592,1.9937,1.3377.5091-.058,1.0303-.01,1.7192-.01Zm-20.4517-2.3754c-.2251-2.6903-.436-5.2094-.6555-7.8322-1.1118.0916-2.0331.1676-3.0548.2518.2757,3.5143.5361,6.8326.8031,10.2349,2.7425-.2046,5.3143-.3964,8.0165-.598-.0554-.8351-.1037-1.5634-.1575-2.3735-1.6836.1078-3.2269.2066-4.9519.3171Zm60.0974,8.6263c1.3141.0226,2.3199-.9165,2.3286-2.1741.0087-1.2619-.9853-2.2267-2.2901-2.2227-1.2428.0038-2.2346.9253-2.2856,2.1234-.0525,1.2339.953,2.2511,2.2472,2.2734Zm-101.449.0003c1.3079-.0021,2.2767-.9602,2.2587-2.2341-.0176-1.2541-1.0306-2.1894-2.3411-2.1616-1.2152.0258-2.2192,1.0077-2.2324,2.1833-.0136,1.2153,1.0317,2.2144,2.3147,2.2124Z" style="stroke-width:0px;"/><path d="m310.5288,113.9811c0,1.7184-.0343,3.4378.0127,5.155.0292,1.0651-.3756,1.5525-1.4665,1.5233-1.4377-.0385-2.8772-.0169-4.3158-.0079-.8875.0056-1.3302-.408-1.3293-1.3052.0039-3.5967.0026-7.1934.0007-10.7902-.0005-.9135.4646-1.2721,1.3572-1.2528,1.438.031,2.8783.0428,4.3155-.0035,1.023-.0329,1.4584.3732,1.4359,1.4064-.0382,1.7576-.0105,3.5166-.0105,5.275Z" style="stroke-width:0px;"/><path d="m296.8483,114.0014c.0003,1.758-.0164,3.5163.0069,5.2741.0127.9591-.4153,1.3912-1.3703,1.379-1.4781-.0189-2.9566-.008-4.435-.0048-.8863.0019-1.3086-.4109-1.305-1.3193.0143-3.556.0152-7.1121-.0005-10.6681-.0042-.9549.3942-1.3844,1.3697-1.3603,1.4774.0366,2.9568.0287,4.4347.0029.9177-.016,1.3096.4074,1.3031,1.3025-.013,1.7979-.0039,3.596-.0036,5.394Z" style="stroke-width:0px;"/><path d="m324.2088,114.0151c0,1.7579-.0266,3.5163.0103,5.2735.0207.984-.4243,1.3769-1.3673,1.3656-1.4381-.0173-2.8767-.0212-4.3147.0015-.9376.0148-1.4265-.3869-1.4261-1.3436.0014-3.5557.0039-7.1115-.0019-10.6672-.0015-.9511.4359-1.3689,1.4014-1.3432,1.4372.0383,2.8773.0432,4.3142-.0013,1.0478-.0324,1.4198.4315,1.3958,1.4414-.0419,1.7569-.0117,3.5155-.0117,5.2734Z" style="stroke-width:0px;"/><path d="m307.9247,66.9547c2.1965-.0002,4.3937.0286,6.5894-.0142.8926-.0174,1.1954.2686,1.1137,1.1858-.2904,3.2589-.5336,6.5225-.751,9.7872-.0523.7847-.399,1.0257-1.1307,1.0227-3.9138-.0161-7.8277-.0155-11.7415,0-.6654.0027-1.0642-.1941-1.1205-.9163-.2632-3.3812-.5366-6.7617-.8152-10.1417-.0642-.7796.3601-.9361,1.0265-.9305,2.2763.0189,4.5528.0072,6.8292.007Z" style="stroke-width:0px;"/><path d="m307.9216,81.6706c2.0761-.0003,4.1533.0407,6.2278-.0169,1.1051-.0307,1.6158.2303,1.4607,1.4832-.3137,2.5327-.5214,5.0794-.7266,7.624-.0595.738-.4044.9345-1.0763.9319-3.9525-.0153-7.9053-.0287-11.8574.0088-.8933.0085-1.0708-.4649-1.1354-1.1721-.2359-2.582-.4747-5.1638-.7292-7.7441-.0855-.8664.3432-1.1265,1.1292-1.1205,2.2356.017,4.4715.006,6.7073.0057Z" style="stroke-width:0px;"/><path d="m172.1746,310.9186c.7266.0583,1.3178.0843,1.9032.1568,1.6401.2032,2.6222,1.3603,2.4999,2.9183-.1269,1.6166-1.1787,2.5689-2.8449,2.5692-.2781,0-.558-.0507-.8339-.0314-.9927.0695-1.3124-.2875-1.1308-1.3292.2371-1.3606.2718-2.7565.4066-4.2837Z" style="stroke-width:0px;"/><path d="m223.0317,307.9786c.7461,1.0353,1.2873,1.7864,1.9169,2.66-.8206.2097-1.4901.3807-2.3205.5929.1292-1.0412.2443-1.9687.4036-3.2529Z" style="stroke-width:0px;"/><path d="m196.8804,315.0833c-.8663.0382-1.5256.0674-2.3786.105.3199-1.0156.5961-1.8925.9694-3.0777.5169,1.0903.9173,1.9351,1.4092,2.9727Z" style="stroke-width:0px;"/><path d="m222.7305,28.6447c1.5174.4441,3.1669.5528,3.7084,2.2988.3588,1.1567-.0278,2.2536-.9951,3.0038-1.4589,1.1312-2.8698.2914-4.3623-.1918.5559-1.7229,1.0899-3.3779,1.6489-5.1107Z" style="stroke-width:0px;"/><path d="m163.1177,26.1105c1.1997-.1349,2.2701-.8485,3.1782.1333.2799.3026.4195,1.0242.2574,1.3932-.5279,1.2024-1.7622.9362-2.8974,1.2604-.1855-.9605-.3461-1.792-.5383-2.787Z" style="stroke-width:0px;"/><path d="m192.9011,24.5243c.4194,1.1837.729,2.0576,1.0529,2.9717h-2.4028c.441-.9707.826-1.8182,1.35-2.9717Z" style="stroke-width:0px;"/></g></g></svg>